<svg xmlns="http://www.w3.org/2000/svg" width="250" height="25" viewBox="0 0 250 25">
  <g fill="none" fill-rule="evenodd">
    <path fill="#121314" fill-rule="nonzero" d="M7.43460145,5.32907052e-15 L17.5216486,5.32907052e-15 C21.5390716,5.32907052e-15 24.8225367,3.20307319 24.9522683,7.1895718 L24.95625,7.43460145 L24.95625,17.5216486 C24.95625,21.5391159 21.7531768,24.8225385 17.7666782,24.9522684 L17.5216486,24.95625 L7.43460145,24.95625 C3.41713406,24.95625 0.133711522,21.7531768 0.00398160725,17.7666782 L-2.30926389e-14,17.5216486 L-2.30926389e-14,7.43460145 C-2.30926389e-14,3.41713406 3.20307319,0.133711522 7.1895718,0.00398160725 L7.43460145,5.32907052e-15 L17.5216486,5.32907052e-15 Z M17.5216486,2.51059783 L7.43460145,2.51059783 C4.78673603,2.51059783 2.6269846,4.60062565 2.51514717,7.22100671 L2.51059783,7.43460145 L2.51059783,17.5216486 C2.51059783,20.169514 4.60066859,22.3292654 7.2210101,22.4411028 L7.43460145,22.4456522 L17.5216486,22.4456522 C20.169514,22.4456522 22.3292654,20.3555814 22.4411028,17.7352399 L22.4456522,17.5216486 L22.4456522,7.43460145 C22.4456522,4.71512681 20.2410779,2.51059783 17.5216486,2.51059783 Z M12.478125,6.02355072 C16.037183,6.02355072 18.9326993,8.91902174 18.9326993,12.4780797 C18.9326993,16.0371377 16.037183,18.932654 12.478125,18.932654 C8.91906703,18.932654 6.02355072,16.0370924 6.02355072,12.4780797 C6.02355072,8.91906703 8.91906703,6.02355072 12.478125,6.02355072 Z M12.478125,8.53414855 C10.2999547,8.53414855 8.53414855,10.2999094 8.53414855,12.478125 C8.53414855,14.6563406 10.2999094,16.4221014 12.478125,16.4221014 C14.6562953,16.4221014 16.4221014,14.6562953 16.4221014,12.478125 C16.4221014,10.2999094 14.6563406,8.53414855 12.478125,8.53414855 Z M18.9451993,4.52536232 C19.7993897,4.52536232 20.4918478,5.21782046 20.4918478,6.07201087 C20.4918478,6.92620128 19.7993897,7.61865942 18.9451993,7.61865942 C18.0910089,7.61865942 17.3985507,6.92620128 17.3985507,6.07201087 C17.3985507,5.21782046 18.0910089,4.52536232 18.9451993,4.52536232 Z"/>
    <g transform="translate(25)">
      <rect width="23.114" height="25" x="1.03"/>
      <path fill="#121314" d="M24.2392526,4.81822183 C23.7044521,5.05536972 23.1492878,5.24245892 22.5796282,5.37790493 C23.2073277,4.78142606 23.6792761,4.03535798 23.9455319,3.2026115 L23.9455319,3.2026115 C24.0215296,2.96487676 23.7633136,2.75930164 23.5486423,2.88659038 L23.5486423,2.88659038 C22.756154,3.3566608 21.9025155,3.70930164 21.011377,3.93482981 C20.9596751,3.94791667 20.9063301,3.95454812 20.8528089,3.95454812 C20.690485,3.95454812 20.5326798,3.89427817 20.4085601,3.7848885 C19.460438,2.94926643 18.2410132,2.48905516 16.974992,2.48905516 C16.4271634,2.48905516 15.8740531,2.57444249 15.3309779,2.74286972 C13.6483488,3.26475939 12.3500507,4.65272887 11.942715,6.36517019 C11.7898981,7.00748239 11.7485249,7.65038146 11.8196516,8.27596831 C11.8278089,8.34785798 11.7938301,8.39803404 11.7728793,8.4215669 C11.7360836,8.46282277 11.6839122,8.486473 11.6297455,8.486473 C11.6237009,8.486473 11.6174803,8.48617958 11.6113183,8.48559272 C7.92810235,8.14339789 4.60674085,6.36892606 2.25902958,3.48911385 L2.25902958,3.48911385 C2.13931127,3.34222418 1.90973381,3.36024061 1.81431127,3.52391432 L1.81431127,3.52391432 C1.35456949,4.31264671 1.11161174,5.21475939 1.11161174,6.13271714 C1.11161174,7.53952465 1.67681127,8.86528756 2.6585601,9.83177817 C2.24570799,9.73389085 1.84611879,9.57972418 1.47493334,9.37356221 L1.47493334,9.37356221 C1.29535587,9.27379695 1.07440517,9.40202465 1.0718817,9.60742371 L1.0718817,9.60742371 C1.04617747,11.6973298 2.26976902,13.5569542 4.10275024,14.3943369 C4.06583709,14.3952171 4.02892395,14.3956279 3.99195212,14.3956279 C3.70140048,14.3956279 3.40721033,14.3675763 3.11765634,14.3122359 L3.11765634,14.3122359 C2.9154263,14.2736209 2.74553193,14.4654636 2.80832536,14.6615317 L2.80832536,14.6615317 C3.40327841,16.5189847 5.00257418,17.8881162 6.91642395,18.198973 C5.32804367,19.2652289 3.47833709,19.8276702 1.55316104,19.8276702 L0.952984982,19.8273181 C0.768067142,19.8273181 0.611670428,19.947858 0.564546015,20.126966 C0.518125827,20.3033744 0.603630522,20.489466 0.761318316,20.5811913 C2.93068451,21.8436913 5.40515634,22.5109448 7.91830188,22.5109448 C10.1181258,22.5109448 12.1758723,22.0743838 14.0344404,21.2134683 C15.7382549,20.4242077 17.2438887,19.29598 18.5094991,17.8601232 C19.6884897,16.5225646 20.610438,14.9784918 21.2496399,13.2708627 C21.8589709,11.6431045 22.1810366,9.90625 22.1810366,8.24803404 L22.1810366,8.16904343 C22.1809779,7.90278756 22.3014005,7.65225939 22.5114944,7.48171948 C23.3087362,6.83441901 24.002985,6.07244718 24.5748747,5.21698944 L24.5748747,5.21698944 C24.7258723,4.99110915 24.4877268,4.70801056 24.2392526,4.81822183 L24.2392526,4.81822183 Z"/>
    </g>
    <path fill="#121314" d="M21.6198655,0 L3.36717604,0 C1.50764059,0 0.000122249389,1.50745721 0.000122249389,3.36705379 L0.000122249389,21.6198655 C0.000122249389,23.4794621 1.50757946,24.9870416 3.36717604,24.9870416 L12.3693154,24.9870416 L12.3846577,16.0579462 L10.0649144,16.0579462 C9.76344743,16.0579462 9.51876528,15.8141809 9.51760391,15.5127139 L9.50647922,12.6345355 C9.50531785,12.3314181 9.7507335,12.0850856 10.0538509,12.0850856 L12.3693765,12.0850856 L12.3693765,9.30403423 C12.3693765,6.07665037 14.3404645,4.3193154 17.2194988,4.3193154 L19.5819682,4.3193154 C19.8842298,4.3193154 20.1293399,4.5643643 20.1293399,4.86668704 L20.1293399,7.29358191 C20.1293399,7.5957824 19.8844132,7.84077017 19.5822738,7.84095355 L18.1324572,7.84162592 C16.5667482,7.84162592 16.2635697,8.5856357 16.2635697,9.67750611 L16.2635697,12.0851467 L19.7039731,12.0851467 C20.0317848,12.0851467 20.2861247,12.3713936 20.2474939,12.6969438 L19.906357,15.5751222 C19.8737164,15.8505501 19.6401589,16.0580685 19.3628362,16.0580685 L16.278912,16.0580685 L16.2635697,24.9870416 L21.6199878,24.9870416 C23.4795232,24.9870416 24.9869804,23.4795844 24.9869804,21.6200489 L24.9869804,3.36705379 C24.9869804,1.50745721 23.4794621,0 21.6198655,0 Z" transform="translate(50)"/>
    <g transform="translate(75)">
      <rect width="25" height="25"/>
      <g fill="#121314" transform="translate(0 4.766)">
        <path fill-rule="nonzero" d="M10.5674837 6.5164488C10.9996732 5.84373638 11.2464597 5.04117647 11.2321895 4.18071895 11.1939542 1.87815904 9.27772331.0483660131 6.97478214.0483660131L.545315904.0483660131C.244172113.0483660131 0 .292538126 0 .593681917L0 14.7328431C0 15.0339869.244172113 15.278159.545315904 15.278159L7.72728758 15.278159C10.3929194 15.278159 12.6010349 13.1416667 12.6119693 10.4760349 12.6186275 8.84237473 11.8084967 7.39400871 10.5674837 6.5164488zM2.8206427 2.86900871L7.0296841 2.86900871C7.791939 2.86900871 8.41214597 3.48916122 8.41214597 4.25147059 8.41214597 5.01372549 7.79199346 5.63393246 7.0296841 5.63393246L2.8206427 5.63393246 2.8206427 2.86900871zM7.78992375 12.4575163L2.8206427 12.4575163 2.8206427 8.45457516 7.0296841 8.45457516 7.78986928 8.45457516C8.89346405 8.45457516 9.79133987 9.35245098 9.79133987 10.4560458 9.79133987 11.5596405 8.89351852 12.4575163 7.78992375 12.4575163zM24.9696623 9.47336601C24.9696623 6.18104575 22.3747821 3.50261438 19.1851852 3.50261438 15.9955882 3.50261438 13.4007081 6.18110022 13.4007081 9.47336601 13.4007081 12.7656318 15.9956427 15.4441721 19.1851852 15.4441721 21.1205882 15.4441721 22.9189542 14.4520153 23.9958606 12.7900871 24.1301198 12.5828976 24.2520697 12.3663943 24.3602941 12.1432462 24.4388344 11.9812636 24.3196623 11.792756 24.1395969 11.7923203L21.2961329 11.7852397C21.2332244 11.7850763 21.1735839 11.8107843 21.1284858 11.8546296 20.5915577 12.3766885 19.9332789 12.6234749 19.1851852 12.6234749 17.7720588 12.6234749 16.5874728 11.5665577 16.2925926 10.1575708L24.4035948 10.1575708C24.7162309 10.1575708 24.9696623 9.90413943 24.9696623 9.59150327L24.9696623 9.47336601zM19.1851852 6.32325708C20.2201525 6.32325708 21.1323529 6.89041394 21.6626362 7.74727669L16.7077887 7.74727669C17.2380174 6.89041394 18.1502723 6.32325708 19.1851852 6.32325708z"/>
        <path d="M21.58878,2.80174292 L16.4582244,2.80174292 C16.2188453,2.80174292 16.0247821,2.60767974 16.0247821,2.36830065 L16.0247821,1.08120915 C16.0247821,0.841830065 16.2188453,0.647766885 16.4582244,0.647766885 L21.58878,0.647766885 C21.828159,0.647766885 22.0222222,0.841830065 22.0222222,1.08120915 L22.0222222,2.36830065 C22.0222222,2.6077342 21.828159,2.80174292 21.58878,2.80174292 Z"/>
      </g>
    </g>
    <path fill="#121314" fill-rule="nonzero" d="M22.7385471,0 L2.26145288,0 C1.0125,0 0,1.0125 0,2.26145288 L0,22.7384817 C0,23.9875 1.0125,25 2.26145288,25 L22.7384817,25 C23.9875,25 25,23.9875 25,22.7384817 L25,2.26145288 C25,1.0125 23.9875,0 22.7385471,0 Z M7.73606021,21.5866492 C7.73606021,21.9501309 7.4414267,22.2447644 7.07794503,22.2447644 L4.27650524,22.2447644 C3.91302356,22.2447644 3.61839005,21.9501309 3.61839005,21.5866492 L3.61839005,9.84312827 C3.61839005,9.4796466 3.91302356,9.18501309 4.27650524,9.18501309 L7.07794503,9.18501309 C7.4414267,9.18501309 7.73606021,9.4796466 7.73606021,9.84312827 L7.73606021,21.5866492 Z M5.67722513,8.07801047 C4.20739529,8.07801047 3.0158377,6.88645288 3.0158377,5.41662304 C3.0158377,3.94679319 4.20739529,2.7552356 5.67722513,2.7552356 C7.14705497,2.7552356 8.33861257,3.94679319 8.33861257,5.41662304 C8.33861257,6.88645288 7.14712042,8.07801047 5.67722513,8.07801047 Z M22.3763107,21.6396597 C22.3763107,21.973822 22.1053665,22.2447644 21.7712042,22.2447644 L18.7650524,22.2447644 C18.4308901,22.2447644 18.1599476,21.973822 18.1599476,21.6396597 L18.1599476,16.1312827 C18.1599476,15.309555 18.4009817,12.5304319 16.0125,12.5304319 C14.1598168,12.5304319 13.7840314,14.4326571 13.7085733,15.286322 L13.7085733,21.6396597 C13.7085733,21.973822 13.4376963,22.2447644 13.1034686,22.2447644 L10.1960079,22.2447644 C9.86184555,22.2447644 9.59090314,21.973822 9.59090314,21.6396597 L9.59090314,9.7901178 C9.59090314,9.4559555 9.86184555,9.18501309 10.1960079,9.18501309 L13.1034686,9.18501309 C13.4376309,9.18501309 13.7085733,9.4559555 13.7085733,9.7901178 L13.7085733,10.8146597 C14.3955497,9.78370419 15.4164921,8.98795812 17.5902487,8.98795812 C22.4038613,8.98795812 22.3763107,13.4850785 22.3763107,15.9560209 L22.3763107,21.6396597 L22.3763107,21.6396597 Z" transform="translate(100)"/>
    <path fill="#121314" fill-rule="nonzero" d="M12.4787559,0 C5.58691315,0 0,5.58691315 0,12.4787559 C0,19.3705986 5.58691315,24.9575117 12.4787559,24.9575117 C19.3705986,24.9575117 24.9575117,19.3705986 24.9575117,12.4787559 C24.9575117,5.58691315 19.3705399,0 12.4787559,0 Z M22.5703638,11.5813967 C21.2457746,11.528169 18.7393779,11.5268192 15.8912559,12.0248239 C15.6339789,11.4079812 15.3711854,10.8164319 15.1071009,10.2519953 C15.2720657,10.175 15.4356808,10.0967136 15.5961854,10.0158451 C17.5524061,9.02998826 19.1769366,7.75463615 20.4430164,6.21514085 C21.6636737,7.76091549 22.3987089,9.61261737 22.5703638,11.5813967 Z M18.7768779,4.54207746 C17.5951291,6.04741784 16.0199531,7.25598592 14.0630869,8.1592723 C13.8429577,7.74448357 13.6259977,7.34994131 13.4154343,6.97957746 C12.3383216,5.08526995 11.3105634,3.57764085 10.5417254,2.53174883 C11.1733568,2.41015258 11.8211854,2.34741784 12.4787559,2.34741784 C14.7948357,2.34741784 16.9918427,3.11995305 18.7768779,4.54207746 Z M5.31478873,5.31478873 C6.16003521,4.46954225 7.12846244,3.79237089 8.17946009,3.29929577 C8.91731221,4.25751174 10.1325117,5.94794601 11.4057512,8.1943662 C11.5512911,8.45117371 11.7002347,8.72089202 11.8509977,9.0004108 C10.8726526,9.30287559 9.82212441,9.5463615 8.69923709,9.72922535 C6.18010563,10.1394366 3.90980047,10.1269953 2.63474178,10.068662 C3.06825117,8.28397887 3.98303991,6.64659624 5.31478873,5.31478873 Z M2.34741784,12.4787559 C2.34741784,12.4547535 2.34812207,12.4308099 2.34829812,12.4068662 C2.78122066,12.4299296 3.33221831,12.4488263 3.97453052,12.4488263 C5.33157277,12.4488263 7.09642019,12.3643192 9.01602113,12.0559859 C10.4007629,11.8335094 11.7058685,11.5195423 12.9205986,11.1174883 C13.1353286,11.5724178 13.3494131,12.0465376 13.5603873,12.5384977 C12.0044014,12.9570423 10.5758803,13.5045775 9.29465962,14.1754695 C7.2157277,15.2640845 5.52230047,16.6785798 4.24735915,18.3881455 C3.01361502,16.6773474 2.34741784,14.6294014 2.34741784,12.4787559 Z M5.86789906,20.1568662 C7.65058685,17.5460094 10.5244131,15.7271714 14.430223,14.7348005 C15.2135563,16.8886737 15.8838028,19.2971831 16.2702465,21.8790493 C15.0812207,22.3584507 13.7994131,22.6100939 12.4787559,22.6100939 C10.0257042,22.6100939 7.70569249,21.7441315 5.86789906,20.1568662 Z M19.6426643,19.6426643 C19.2687207,20.016608 18.8704225,20.3571596 18.4518192,20.6640258 C18.0509977,18.3704812 17.4481221,16.2195423 16.7538146,14.2611502 C19.214554,13.8752347 21.3795775,13.8848592 22.5070423,13.9299883 C22.1997653,16.0855047 21.2097418,18.0756455 19.6426643,19.6426643 Z" transform="translate(150)"/>
    <path fill="#121314" fill-rule="nonzero" d="M12.5,0 C5.60751953,0 4.8828125e-05,5.60732422 4.8828125e-05,12.4997559 C4.8828125e-05,19.3923828 5.60751953,25 12.5,25 C13.1275879,25 13.636377,24.4912109 13.636377,23.863623 C13.636377,23.2360352 13.1275879,22.7272461 12.5,22.7272461 C6.86064453,22.7272461 2.27275391,18.1391602 2.27275391,12.499707 C2.27270508,6.86049805 6.86064453,2.27270508 12.5,2.27270508 C18.1393555,2.27270508 22.7272461,6.86049805 22.7272461,12.499707 L22.7272461,15.3411621 C22.7272461,16.2811035 21.9624023,17.0457031 21.0224121,17.0457031 C20.0825684,17.0457031 19.3179688,16.2811035 19.3179688,15.3411621 L19.3179688,12.499707 C19.3179688,8.74008789 16.2594727,5.68154297 12.5000488,5.68154297 C8.74052734,5.68154297 5.68198242,8.74008789 5.68198242,12.499707 C5.68198242,16.2595215 8.74052734,19.3184082 12.5000488,19.3184082 C14.464209,19.3184082 16.2367187,18.4831055 17.4819824,17.1494629 C18.1415039,18.4356934 19.4803711,19.3184082 21.0224121,19.3184082 C23.2156738,19.3184082 25,17.5342285 25,15.3411621 L25,12.499707 C25,5.60732422 19.3924805,0 12.5,0 Z M12.5,17.0457031 C9.99365234,17.0457031 7.95463867,15.0063965 7.95463867,12.499707 C7.95463867,9.99326172 9.99365234,7.95424805 12.5,7.95424805 C15.0062988,7.95424805 17.0452148,9.99326172 17.0452148,12.499707 C17.0452148,15.0063965 15.0062012,17.0457031 12.5,17.0457031 Z" transform="translate(125)"/>
    <path fill="#121314" d="M23.323209,6.38167844 C22.2054243,4.41846266 20.6892207,2.86418199 18.7741993,1.71848582 C16.8588928,0.572731214 14.7679491,0 12.499886,0 C10.2321079,0 8.14048013,0.572906522 6.22557269,1.71848582 C4.31038021,2.86412356 2.79423367,4.41846266 1.67644899,6.38167844 C0.558835333,8.34483579 0,10.4886188 0,12.812969 C0,15.605041 0.794671483,18.1157437 2.38441349,20.3457198 C3.97398449,22.5758712 6.02747488,24.119049 8.54471367,24.9754286 C8.8377274,25.0311765 9.05463737,24.991966 9.19567161,24.8587903 C9.33676285,24.7254394 9.40722296,24.5584293 9.40722296,24.3584613 C9.40722296,24.3250943 9.40442964,24.0249086 9.39901401,23.4575535 C9.39342737,22.8901984 9.39080507,22.3952455 9.39080507,21.9729286 L9.01644297,22.0393119 C8.7777565,22.0841323 8.47664783,22.103124 8.11311698,22.0977479 C7.74975715,22.0925471 7.37254473,22.0535118 6.98199277,21.9809343 C6.59126979,21.9089996 6.22785295,21.7421648 5.89145722,21.4807806 C5.55523252,21.2193964 5.31654604,20.8772536 5.1754548,20.4548782 L5.01270106,20.0709537 C4.90421757,19.8153547 4.73342591,19.5314141 4.50009805,19.220184 C4.26677019,18.9086617 4.03082003,18.697474 3.79213355,18.5862703 L3.67817743,18.5026484 C3.60224469,18.4470758 3.53178458,18.3800497 3.46662608,18.3022714 C3.40152458,18.2244931 3.35278397,18.1466563 3.32023323,18.0687027 C3.28762547,17.9906906 3.31464658,17.9267032 3.40158159,17.8765067 C3.4885166,17.8263102 3.64562668,17.8019424 3.87359593,17.8019424 L4.19898939,17.8517883 C4.41601337,17.8963749 4.68445727,18.0295506 5.00466314,18.2521333 C5.32469798,18.4745407 5.58778327,18.763682 5.793976,19.1194404 C6.04366475,19.5755918 6.34448838,19.9231691 6.69730199,20.1623476 C7.04983058,20.4015262 7.40526649,20.5209109 7.76326771,20.5209109 C8.12126892,20.5209109 8.43047252,20.4930954 8.69099251,20.4377565 C8.95122747,20.3821254 9.19538657,20.2985035 9.42335582,20.1873582 C9.52100806,19.4418318 9.78688667,18.8691005 10.2207636,18.4687555 C9.60235642,18.4021385 9.04637142,18.3018039 8.55252357,18.1683945 C8.05896075,18.0348098 7.54892303,17.8180123 7.02275246,17.5174175 C6.49629685,17.2172318 6.05956958,16.8444685 5.71245662,16.3997706 C5.36528665,15.9548389 5.08036785,15.3707127 4.85809926,14.6479178 C4.63571666,13.9248308 4.52449686,13.0907153 4.52449686,12.1453378 C4.52449686,10.7992646 4.95318621,9.65380214 5.81039389,8.70830769 C5.40883967,7.69631308 5.44674903,6.56183662 5.924236,5.30499518 C6.23891222,5.20477745 6.70556794,5.27998458 7.32397514,5.53014908 C7.94249634,5.78043046 8.39535647,5.99483214 8.68301159,6.17259444 C8.9706667,6.35029831 9.20114424,6.50088788 9.37478623,6.62301911 C10.3840874,6.33393623 11.4256543,6.18936557 12.499772,6.18936557 C13.5738896,6.18936557 14.6156846,6.33393623 15.6250428,6.62301911 L16.243507,6.22279096 C16.6664386,5.95573846 17.1658731,5.7110085 17.7406133,5.48854265 C18.3156955,5.26619368 18.7554441,5.20495276 19.0594031,5.30517049 C19.5474933,6.56207037 19.5909893,7.69648839 19.1893211,8.708483 C20.0464717,9.65397745 20.4753321,10.7997321 20.4753321,12.1455131 C20.4753321,13.0908907 20.3637133,13.9276357 20.1416727,14.6562742 C19.9193471,15.3850295 19.631977,15.9685714 19.2794485,16.4081269 C18.9265208,16.8476241 18.4870002,17.2174655 17.9608297,17.5175928 C17.4345451,17.8179538 16.9243363,18.0347514 16.4307735,18.1683361 C15.9369827,18.3019208 15.3809977,18.4023138 14.7625905,18.4690477 C15.3266134,18.9693767 15.6086819,19.7591392 15.6086819,20.8379846 L15.6086819,24.3579938 C15.6086819,24.5579618 15.6765197,24.7249134 15.8123093,24.8583228 C15.9479279,24.9914985 16.1621016,25.030709 16.4551153,24.9749026 C18.9726961,24.11864 21.0261865,22.5754037 22.6157005,20.3452523 C24.2050435,18.1152762 25,15.6045735 25,12.8125016 C24.9994299,10.4884435 24.4403096,8.34483579 23.323209,6.38167844 Z" transform="translate(175)"/>
    <path fill="#121314" d="M18.475,18.16875 L18.04375,18.871875 L19.290625,19.49375 L23.578125,21.6375 C23.8125,21.75625 24.0375,21.809375 24.23125,21.809375 C24.665625,21.809375 24.9609375,21.5328125 24.9609375,21.040625 L24.9609375,7.6296875 L18.4765625,18.16875 L18.475,18.16875 Z M24.875,4.621875 C24.86875,4.6171875 24.875,4.60625 24.8703125,4.603125 L17.33125,0.834375 C17.2375,0.7875 17.1390625,0.775 17.0390625,0.765625 C17.0140625,0.765625 16.9921875,0.75 16.965625,0.75 C16.678125,0.75 16.390625,0.89375 16.2359375,1.146875 L15.8609375,1.75625 L15.0796875,3.028125 L12.1265625,7.840625 L15.0796875,12.646875 L15.8609375,13.9171875 L16.6421875,15.1859375 L17.5640625,16.6703125 L24.9234375,4.7328125 C24.9546875,4.6859375 24.9390625,4.6390625 24.8921875,4.6078125 L24.875,4.621875 Z M15.078125,15.6296875 L11.203125,9.328125 L10.7421875,8.5828125 L10.2828125,7.8375 L9.8921875,7.1875 L9.8921875,14.7921875 L15.0796875,17.390625 L15.8609375,17.78125 L16.6421875,18.171875 L15.8609375,16.9015625 L15.0796875,15.63125 L15.078125,15.6296875 Z M1.1515625,1.0625 L0.921875,0.95 C0.7890625,0.884375 0.6625,0.853125 0.546875,0.853125 C0.225,0.853125 0,1.103125 0,1.5203125 L0,17.3984375 C0,17.8234375 0.3125,18.3265625 0.690625,18.5171875 L7.1671875,21.7671875 C7.334375,21.8609375 7.4921875,21.8921875 7.6359375,21.8921875 C8.0375,21.8921875 8.3203125,21.5796875 8.3203125,21.0640625 L8.3203125,4.703125 C8.3203125,4.671875 8.3015625,4.640625 8.2734375,4.6296875 L1.153125,1.0625 L1.1515625,1.0625 Z" transform="translate(200 .781)"/>
    <path fill="#000" fill-rule="nonzero" d="M22.7385471,0 L2.26145288,0 C1.0125,0 0,1.0125 0,2.26145288 L0,22.7384817 C0,23.9875 1.0125,25 2.26145288,25 L22.7384817,25 C23.9875,25 25,23.9875 25,22.7384817 L25,2.26145288 C25,1.0125 23.9875,0 22.7385471,0 Z M2.44680851,15.7492021 C2.44042553,15.7970745 2.40611702,15.8297872 2.36409574,15.8297872 C2.32101064,15.8297872 2.28643617,15.7965426 2.28085106,15.7486702 L2.12925532,14.6164894 L2.28085106,13.4643617 C2.28643617,13.4162234 2.32074468,13.3829787 2.36409574,13.3829787 C2.40585106,13.3829787 2.44015957,13.4162234 2.44680851,13.4640957 L2.62659574,14.6164894 L2.44680851,15.7492021 Z M3.21728723,16.4385638 C3.2106383,16.4880319 3.175,16.5223404 3.13138298,16.5223404 C3.08723404,16.5223404 3.05053191,16.487234 3.04494681,16.4385638 L2.84095745,14.6170213 L3.04494681,12.7545213 C3.05053191,12.7055851 3.08723404,12.6710106 3.13138298,12.6710106 C3.175,12.6710106 3.2106383,12.7053191 3.21728723,12.7545213 L3.44946809,14.6170213 L3.21728723,16.4385638 Z M4.04973404,16.7465426 C4.04335106,16.8058511 3.99973404,16.8484043 3.94601064,16.8484043 C3.8912234,16.8484043 3.84734043,16.8058511 3.84175532,16.7460106 L3.6481383,14.6170213 L3.84175532,12.4069149 C3.84734043,12.3478723 3.8912234,12.3050532 3.94601064,12.3050532 C3.99946809,12.3050532 4.04308511,12.3478723 4.04973404,12.4069149 L4.26941489,14.6170213 L4.04973404,16.7465426 Z M4.88909574,16.8140957 C4.88351064,16.8821809 4.83085106,16.9335106 4.76781915,16.9335106 C4.70319149,16.9335106 4.65079787,16.8821809 4.64574468,16.8140957 L4.46276596,14.6172872 L4.64574468,12.3462766 C4.65079787,12.2781915 4.70319149,12.2268617 4.76781915,12.2268617 C4.83085106,12.2268617 4.88351064,12.2781915 4.88909574,12.3460106 L5.09680851,14.6172872 L4.88909574,16.8140957 Z M5.73484043,16.8324468 C5.72978723,16.9103723 5.66968085,16.9699468 5.59601064,16.9699468 C5.5212766,16.9699468 5.46117021,16.9103723 5.45664894,16.8324468 L5.2837766,14.6175532 L5.45664894,12.5111702 C5.46143617,12.4327128 5.5212766,12.3736702 5.59601064,12.3736702 C5.66968085,12.3736702 5.73005319,12.4327128 5.73484043,12.5103723 L5.93085106,14.6175532 L5.73484043,16.8324468 Z M6.58723404,16.8332447 L6.58723404,16.8327128 C6.58244681,16.9196809 6.51356383,16.9880319 6.43058511,16.9880319 C6.34654255,16.9880319 6.27792553,16.9196809 6.27367021,16.8332447 L6.11143617,14.6183511 C6.11143617,14.6183511 6.27367021,11.1914894 6.27367021,11.1912234 C6.27792553,11.1039894 6.3462766,11.0359043 6.43058511,11.0359043 C6.51356383,11.0359043 6.58244681,11.1042553 6.58723404,11.1909574 L6.77047872,14.6183511 L6.58723404,16.8332447 Z M7.43324468,16.8316489 L7.43324468,16.8305851 C7.42898936,16.9276596 7.35212766,17.0034574 7.2587766,17.0034574 C7.16462766,17.0034574 7.08829787,16.9276596 7.08430851,16.831383 L6.93271277,14.6303191 C6.93271277,14.6303191 7.0837766,10.4196809 7.0837766,10.4194149 C7.08856383,10.3223404 7.16489362,10.2462766 7.2587766,10.2462766 C7.35239362,10.2462766 7.42925532,10.3223404 7.43324468,10.4194149 L7.60478723,14.6303191 L7.43324468,16.8316489 Z M8.31223404,16.7981383 L8.31223404,16.7968085 C8.30797872,16.9037234 8.22340426,16.9875 8.11994681,16.9875 C8.01542553,16.9875 7.93138298,16.9039894 7.92712766,16.7976064 L7.78643617,14.6194149 C7.78643617,14.6194149 7.92712766,10.0571809 7.92712766,10.0569149 C7.93138298,9.95 8.01542553,9.86595745 8.11994681,9.86595745 C8.22340426,9.86595745 8.30797872,9.94973404 8.31223404,10.0569149 L8.47180851,14.6194149 L8.31223404,16.7981383 Z M9.18430851,16.7832447 C9.18111702,16.899734 9.08882979,16.9914894 8.975,16.9914894 C8.86010638,16.9914894 8.76781915,16.899734 8.76462766,16.7837766 L8.6337766,14.6191489 L8.76462766,9.90319149 C8.76781915,9.78617021 8.86010638,9.69414894 8.975,9.69414894 C9.08882979,9.69414894 9.18111702,9.78590426 9.18430851,9.90319149 L9.33191489,14.6194149 L9.18430851,16.7832447 Z M10.0638298,16.7646277 L10.0638298,16.7630319 C10.0606383,16.8898936 9.96037234,16.9898936 9.83643617,16.9898936 C9.71170213,16.9898936 9.61143617,16.8898936 9.60904255,16.7640957 L9.48856383,14.6199468 L9.60904255,10.0244681 C9.61170213,9.89734043 9.71196809,9.79787234 9.83643617,9.79787234 C9.9606383,9.79787234 10.0609043,9.89707447 10.0638298,10.0242021 L10.1994681,14.6204787 L10.0638298,16.7646277 Z M10.95,16.7510638 L10.95,16.7489362 C10.9473404,16.8864362 10.8393617,16.993617 10.7047872,16.993617 C10.5696809,16.993617 10.4617021,16.8864362 10.4585106,16.7505319 L10.3494681,14.6196809 L10.4585106,10.1922872 C10.4617021,10.0550532 10.5696809,9.94760638 10.7047872,9.94760638 C10.8393617,9.94760638 10.9473404,10.0550532 10.95,10.1917553 L11.0731383,14.6204787 L10.95,16.7510638 Z M11.8537234,16.5268617 L11.8428191,16.7361702 C11.8412234,16.8082447 11.8111702,16.8739362 11.7632979,16.9212766 C11.7159574,16.968617 11.6510638,16.9984043 11.5795213,16.9984043 C11.4989362,16.9984043 11.4268617,16.9609043 11.3779255,16.9034574 C11.3420213,16.8603723 11.3196809,16.8058511 11.3167553,16.7465426 C11.3167553,16.743617 11.3162234,16.7409574 11.3162234,16.737766 C11.3162234,16.737766 11.2170213,14.6226064 11.2170213,14.6194149 L11.3156915,9.40132979 L11.3162234,9.35159574 C11.3178191,9.25957447 11.3662234,9.1787234 11.437766,9.13191489 C11.4787234,9.10505319 11.5271277,9.08909574 11.5795213,9.08909574 C11.6329787,9.08909574 11.6835106,9.10585106 11.725,9.1337766 C11.7946809,9.18111702 11.8414894,9.26090426 11.8428191,9.35106383 L11.9534574,14.6202128 L11.8537234,16.5268617 Z M12.7316489,16.7069149 L12.7316489,16.7069149 L12.7316489,16.7047872 C12.7289894,16.8590426 12.6034574,16.9848404 12.4505319,16.9848404 C12.2976064,16.9848404 12.1715426,16.8590426 12.1694149,16.706383 L12.112766,15.6781915 L12.0539894,14.6212766 L12.168883,8.90292553 L12.1694149,8.87420213 C12.1704787,8.7875 12.2109043,8.70957447 12.2734043,8.65824468 C12.3223404,8.61808511 12.3835106,8.59388298 12.4505319,8.59388298 C12.5023936,8.59388298 12.5518617,8.6087766 12.593617,8.63430851 C12.674734,8.68351064 12.7303191,8.77234043 12.7319149,8.87367021 L12.8566489,14.6212766 L12.7316489,16.7069149 Z M20.3196809,16.9906915 C20.3196809,16.9906915 13.2542553,16.9917553 13.2473404,16.9906915 C13.0952128,16.9755319 12.9742021,16.8539894 12.9720745,16.6978723 L12.9720745,8.60106383 C12.9742021,8.45212766 13.025,8.37579787 13.2172872,8.30106383 C13.712766,8.10957447 14.2744681,7.9962766 14.8494681,7.9962766 C17.2015957,7.9962766 19.1292553,9.79973404 19.3327128,12.0986702 C19.6361702,11.9715426 19.9696809,11.9007979 20.3196809,11.9007979 C21.7284574,11.9007979 22.8702128,13.0428191 22.8702128,14.4518617 C22.8702128,15.8614362 21.7284574,16.9906915 20.3196809,16.9906915 Z" transform="translate(225)"/>
  </g>
</svg>
